<mxfile host="app.diagrams.net" modified="2022-04-22T14:40:11.691Z" agent="5.0 (Windows)" etag="D1MRlwCHLJ2BFFjt9bnw" version="17.4.6" type="github">
  <diagram name="Page-1" id="97916047-d0de-89f5-080d-49f4d83e522f">
    <mxGraphModel dx="2844" dy="1444" grid="1" gridSize="10" guides="1" tooltips="1" connect="1" arrows="1" fold="1" page="1" pageScale="1.5" pageWidth="1169" pageHeight="827" background="none" math="0" shadow="0">
      <root>
        <mxCell id="0" />
        <mxCell id="1" parent="0" />
        <mxCell id="2" value="ShipCall" style="rounded=1;fillColor=#00CC66;strokeColor=none;shadow=1;gradientColor=none;fontStyle=1;fontColor=#FFFFFF;fontSize=21&#xa;;" parent="1" vertex="1">
          <mxGeometry x="672" y="180" width="200" height="60" as="geometry" />
        </mxCell>
        <mxCell id="lcggfKQUq6D2q7CxVZYy-72" style="edgeStyle=none;rounded=0;orthogonalLoop=1;jettySize=auto;html=1;entryX=0.59;entryY=0.833;entryDx=0;entryDy=0;entryPerimeter=0;" parent="1" source="3" target="2" edge="1">
          <mxGeometry relative="1" as="geometry" />
        </mxCell>
        <mxCell id="3" value="Route" style="rounded=1;fillColor=#10739E;strokeColor=none;shadow=1;gradientColor=none;fontStyle=1;fontColor=#FFFFFF;fontSize=21&#xa;;" parent="1" vertex="1">
          <mxGeometry x="600" y="310" width="220" height="70" as="geometry" />
        </mxCell>
        <mxCell id="lcggfKQUq6D2q7CxVZYy-66" style="edgeStyle=none;rounded=0;orthogonalLoop=1;jettySize=auto;html=1;entryX=1;entryY=0.5;entryDx=0;entryDy=0;" parent="1" source="lcggfKQUq6D2q7CxVZYy-57" target="2" edge="1">
          <mxGeometry relative="1" as="geometry" />
        </mxCell>
        <mxCell id="lcggfKQUq6D2q7CxVZYy-57" value="ID_SHIPCALL" style="rounded=1;fillColor=red;strokeColor=none;shadow=1;gradientColor=none;fontStyle=1;fontColor=#FFFFFF;fontSize=21&#xa;;" parent="1" vertex="1">
          <mxGeometry x="1400" y="190" width="200" height="60" as="geometry" />
        </mxCell>
        <mxCell id="lcggfKQUq6D2q7CxVZYy-67" style="edgeStyle=none;rounded=0;orthogonalLoop=1;jettySize=auto;html=1;" parent="1" source="lcggfKQUq6D2q7CxVZYy-58" edge="1">
          <mxGeometry relative="1" as="geometry">
            <mxPoint x="860" y="210" as="targetPoint" />
          </mxGeometry>
        </mxCell>
        <mxCell id="lcggfKQUq6D2q7CxVZYy-58" value="ID_LINE" style="rounded=1;fillColor=red&#xa;;strokeColor=none;shadow=1;gradientColor=none;fontStyle=1;fontColor=#FFFFFF;fontSize=21&#xa;;" parent="1" vertex="1">
          <mxGeometry x="1490" y="260" width="200" height="60" as="geometry" />
        </mxCell>
        <mxCell id="lcggfKQUq6D2q7CxVZYy-68" style="edgeStyle=none;rounded=0;orthogonalLoop=1;jettySize=auto;html=1;exitX=0;exitY=0.5;exitDx=0;exitDy=0;" parent="1" source="lcggfKQUq6D2q7CxVZYy-59" edge="1">
          <mxGeometry relative="1" as="geometry">
            <mxPoint x="860" y="210" as="targetPoint" />
          </mxGeometry>
        </mxCell>
        <mxCell id="lcggfKQUq6D2q7CxVZYy-59" value="Voyage" style="rounded=1;fillColor=#66B2FF;strokeColor=none;shadow=1;gradientColor=none;fontStyle=1;fontColor=#FFFFFF;fontSize=21&#xa;;" parent="1" vertex="1">
          <mxGeometry x="1550" y="330" width="200" height="60" as="geometry" />
        </mxCell>
        <mxCell id="lcggfKQUq6D2q7CxVZYy-69" style="edgeStyle=none;rounded=0;orthogonalLoop=1;jettySize=auto;html=1;exitX=0;exitY=0.5;exitDx=0;exitDy=0;" parent="1" source="lcggfKQUq6D2q7CxVZYy-60" edge="1">
          <mxGeometry relative="1" as="geometry">
            <mxPoint x="860" y="210" as="targetPoint" />
          </mxGeometry>
        </mxCell>
        <mxCell id="lcggfKQUq6D2q7CxVZYy-60" value="Arrival" style="rounded=1;fillColor=#66B2FF;strokeColor=none;shadow=1;gradientColor=none;fontStyle=1;fontColor=#FFFFFF;fontSize=21&#xa;;" parent="1" vertex="1">
          <mxGeometry x="1550" y="410" width="200" height="60" as="geometry" />
        </mxCell>
        <mxCell id="lcggfKQUq6D2q7CxVZYy-70" style="edgeStyle=none;rounded=0;orthogonalLoop=1;jettySize=auto;html=1;exitX=0;exitY=0.5;exitDx=0;exitDy=0;" parent="1" source="lcggfKQUq6D2q7CxVZYy-61" edge="1">
          <mxGeometry relative="1" as="geometry">
            <mxPoint x="860" y="210" as="targetPoint" />
          </mxGeometry>
        </mxCell>
        <mxCell id="lcggfKQUq6D2q7CxVZYy-61" value="Departure" style="rounded=1;fillColor=#66B2FF;strokeColor=none;shadow=1;gradientColor=none;fontStyle=1;fontColor=#FFFFFF;fontSize=21&#xa;;" parent="1" vertex="1">
          <mxGeometry x="1550" y="480" width="200" height="60" as="geometry" />
        </mxCell>
        <mxCell id="lcggfKQUq6D2q7CxVZYy-71" style="edgeStyle=none;rounded=0;orthogonalLoop=1;jettySize=auto;html=1;exitX=0;exitY=0.5;exitDx=0;exitDy=0;" parent="1" source="lcggfKQUq6D2q7CxVZYy-62" edge="1">
          <mxGeometry relative="1" as="geometry">
            <mxPoint x="870" y="220" as="targetPoint" />
          </mxGeometry>
        </mxCell>
        <mxCell id="lcggfKQUq6D2q7CxVZYy-62" value="AdditionalInfo" style="rounded=1;fillColor=#66B2FF;strokeColor=none;shadow=1;gradientColor=none;fontStyle=1;fontColor=#FFFFFF;fontSize=21&#xa;;" parent="1" vertex="1">
          <mxGeometry x="1554" y="550" width="200" height="60" as="geometry" />
        </mxCell>
        <mxCell id="lcggfKQUq6D2q7CxVZYy-65" style="edgeStyle=none;rounded=0;orthogonalLoop=1;jettySize=auto;html=1;entryX=0;entryY=0.75;entryDx=0;entryDy=0;" parent="1" source="lcggfKQUq6D2q7CxVZYy-58" target="lcggfKQUq6D2q7CxVZYy-58" edge="1">
          <mxGeometry relative="1" as="geometry" />
        </mxCell>
        <mxCell id="lcggfKQUq6D2q7CxVZYy-75" style="edgeStyle=none;rounded=0;orthogonalLoop=1;jettySize=auto;html=1;exitX=1;exitY=0.5;exitDx=0;exitDy=0;entryX=0;entryY=0.5;entryDx=0;entryDy=0;" parent="1" source="lcggfKQUq6D2q7CxVZYy-73" target="3" edge="1">
          <mxGeometry relative="1" as="geometry" />
        </mxCell>
        <mxCell id="lcggfKQUq6D2q7CxVZYy-73" value="ID_ROUTE" style="rounded=1;fillColor=red;strokeColor=none;shadow=1;gradientColor=none;fontStyle=1;fontColor=#FFFFFF;fontSize=21&#xa;;" parent="1" vertex="1">
          <mxGeometry x="230" y="280" width="200" height="60" as="geometry" />
        </mxCell>
        <mxCell id="lcggfKQUq6D2q7CxVZYy-76" style="edgeStyle=none;rounded=0;orthogonalLoop=1;jettySize=auto;html=1;exitX=1;exitY=0.5;exitDx=0;exitDy=0;entryX=0;entryY=0.5;entryDx=0;entryDy=0;" parent="1" source="lcggfKQUq6D2q7CxVZYy-74" target="3" edge="1">
          <mxGeometry relative="1" as="geometry">
            <mxPoint x="670" y="360" as="targetPoint" />
          </mxGeometry>
        </mxCell>
        <mxCell id="lcggfKQUq6D2q7CxVZYy-74" value="ID_LINE" style="rounded=1;fillColor=red&#xa;;strokeColor=none;shadow=1;gradientColor=none;fontStyle=1;fontColor=#FFFFFF;fontSize=21&#xa;;" parent="1" vertex="1">
          <mxGeometry x="230" y="382" width="200" height="60" as="geometry" />
        </mxCell>
        <mxCell id="lcggfKQUq6D2q7CxVZYy-86" style="edgeStyle=none;rounded=0;orthogonalLoop=1;jettySize=auto;html=1;entryX=0.418;entryY=1;entryDx=0;entryDy=0;entryPerimeter=0;" parent="1" source="lcggfKQUq6D2q7CxVZYy-77" target="3" edge="1">
          <mxGeometry relative="1" as="geometry" />
        </mxCell>
        <mxCell id="lcggfKQUq6D2q7CxVZYy-77" value="Line" style="rounded=1;fillColor=#10739E;strokeColor=none;shadow=1;gradientColor=none;fontStyle=1;fontColor=#FFFFFF;fontSize=21&#xa;;" parent="1" vertex="1">
          <mxGeometry x="220" y="518" width="220" height="70" as="geometry" />
        </mxCell>
        <mxCell id="lcggfKQUq6D2q7CxVZYy-87" style="edgeStyle=none;rounded=0;orthogonalLoop=1;jettySize=auto;html=1;entryX=0.5;entryY=1;entryDx=0;entryDy=0;" parent="1" source="lcggfKQUq6D2q7CxVZYy-78" target="3" edge="1">
          <mxGeometry relative="1" as="geometry" />
        </mxCell>
        <mxCell id="lcggfKQUq6D2q7CxVZYy-78" value="Vessel" style="rounded=1;fillColor=#10739E;strokeColor=none;shadow=1;gradientColor=none;fontStyle=1;fontColor=#FFFFFF;fontSize=21&#xa;;" parent="1" vertex="1">
          <mxGeometry x="620" y="518" width="220" height="70" as="geometry" />
        </mxCell>
        <mxCell id="lcggfKQUq6D2q7CxVZYy-85" style="edgeStyle=none;rounded=0;orthogonalLoop=1;jettySize=auto;html=1;exitX=0;exitY=0.5;exitDx=0;exitDy=0;entryX=0.89;entryY=1.067;entryDx=0;entryDy=0;entryPerimeter=0;" parent="1" source="lcggfKQUq6D2q7CxVZYy-79" target="2" edge="1">
          <mxGeometry relative="1" as="geometry" />
        </mxCell>
        <mxCell id="lcggfKQUq6D2q7CxVZYy-79" value="Port" style="rounded=1;fillColor=#10739E;strokeColor=none;shadow=1;gradientColor=none;fontStyle=1;fontColor=#FFFFFF;fontSize=21&#xa;;" parent="1" vertex="1">
          <mxGeometry x="1534" y="620" width="220" height="70" as="geometry" />
        </mxCell>
        <mxCell id="lcggfKQUq6D2q7CxVZYy-83" style="edgeStyle=none;rounded=0;orthogonalLoop=1;jettySize=auto;html=1;entryX=0.427;entryY=1;entryDx=0;entryDy=0;entryPerimeter=0;" parent="1" source="lcggfKQUq6D2q7CxVZYy-80" target="lcggfKQUq6D2q7CxVZYy-79" edge="1">
          <mxGeometry relative="1" as="geometry" />
        </mxCell>
        <mxCell id="lcggfKQUq6D2q7CxVZYy-80" value="ID_PORT" style="rounded=1;fillColor=red;strokeColor=none;shadow=1;gradientColor=none;fontStyle=1;fontColor=#FFFFFF;fontSize=21&#xa;;" parent="1" vertex="1">
          <mxGeometry x="1390" y="730" width="200" height="60" as="geometry" />
        </mxCell>
        <mxCell id="lcggfKQUq6D2q7CxVZYy-84" style="edgeStyle=none;rounded=0;orthogonalLoop=1;jettySize=auto;html=1;exitX=0.5;exitY=0;exitDx=0;exitDy=0;entryX=0.5;entryY=1;entryDx=0;entryDy=0;" parent="1" source="lcggfKQUq6D2q7CxVZYy-82" target="lcggfKQUq6D2q7CxVZYy-79" edge="1">
          <mxGeometry relative="1" as="geometry" />
        </mxCell>
        <mxCell id="lcggfKQUq6D2q7CxVZYy-82" value="Name" style="rounded=1;fillColor=#66B2FF;strokeColor=none;shadow=1;gradientColor=none;fontStyle=1;fontColor=#FFFFFF;fontSize=21&#xa;;" parent="1" vertex="1">
          <mxGeometry x="1500" y="830" width="200" height="60" as="geometry" />
        </mxCell>
        <mxCell id="lcggfKQUq6D2q7CxVZYy-90" style="edgeStyle=none;rounded=0;orthogonalLoop=1;jettySize=auto;html=1;" parent="1" source="lcggfKQUq6D2q7CxVZYy-88" target="lcggfKQUq6D2q7CxVZYy-77" edge="1">
          <mxGeometry relative="1" as="geometry" />
        </mxCell>
        <mxCell id="lcggfKQUq6D2q7CxVZYy-88" value="ID_LINE" style="rounded=1;fillColor=red&#xa;;strokeColor=none;shadow=1;gradientColor=none;fontStyle=1;fontColor=#FFFFFF;fontSize=21&#xa;;" parent="1" vertex="1">
          <mxGeometry x="100" y="670" width="200" height="60" as="geometry" />
        </mxCell>
        <mxCell id="lcggfKQUq6D2q7CxVZYy-91" style="edgeStyle=none;rounded=0;orthogonalLoop=1;jettySize=auto;html=1;exitX=0.5;exitY=0;exitDx=0;exitDy=0;entryX=0.5;entryY=1;entryDx=0;entryDy=0;" parent="1" source="lcggfKQUq6D2q7CxVZYy-89" target="lcggfKQUq6D2q7CxVZYy-77" edge="1">
          <mxGeometry relative="1" as="geometry" />
        </mxCell>
        <mxCell id="lcggfKQUq6D2q7CxVZYy-89" value="Name" style="rounded=1;fillColor=#66B2FF;strokeColor=none;shadow=1;gradientColor=none;fontStyle=1;fontColor=#FFFFFF;fontSize=21&#xa;;" parent="1" vertex="1">
          <mxGeometry x="330" y="670" width="200" height="60" as="geometry" />
        </mxCell>
        <mxCell id="lcggfKQUq6D2q7CxVZYy-97" style="edgeStyle=none;rounded=0;orthogonalLoop=1;jettySize=auto;html=1;exitX=0.5;exitY=0;exitDx=0;exitDy=0;entryX=0.5;entryY=1;entryDx=0;entryDy=0;" parent="1" source="lcggfKQUq6D2q7CxVZYy-92" target="lcggfKQUq6D2q7CxVZYy-78" edge="1">
          <mxGeometry relative="1" as="geometry" />
        </mxCell>
        <mxCell id="lcggfKQUq6D2q7CxVZYy-92" value="Port" style="rounded=1;fillColor=#10739E;strokeColor=none;shadow=1;gradientColor=none;fontStyle=1;fontColor=#FFFFFF;fontSize=21&#xa;;" parent="1" vertex="1">
          <mxGeometry x="570" y="680" width="220" height="70" as="geometry" />
        </mxCell>
        <mxCell id="lcggfKQUq6D2q7CxVZYy-95" style="edgeStyle=none;rounded=0;orthogonalLoop=1;jettySize=auto;html=1;entryX=0.25;entryY=1;entryDx=0;entryDy=0;" parent="1" source="lcggfKQUq6D2q7CxVZYy-93" target="lcggfKQUq6D2q7CxVZYy-92" edge="1">
          <mxGeometry relative="1" as="geometry" />
        </mxCell>
        <mxCell id="lcggfKQUq6D2q7CxVZYy-93" value="ID_PORT" style="rounded=1;fillColor=red;strokeColor=none;shadow=1;gradientColor=none;fontStyle=1;fontColor=#FFFFFF;fontSize=21&#xa;;" parent="1" vertex="1">
          <mxGeometry x="350" y="860" width="200" height="60" as="geometry" />
        </mxCell>
        <mxCell id="lcggfKQUq6D2q7CxVZYy-96" style="edgeStyle=none;rounded=0;orthogonalLoop=1;jettySize=auto;html=1;exitX=0.5;exitY=0;exitDx=0;exitDy=0;entryX=0.636;entryY=1;entryDx=0;entryDy=0;entryPerimeter=0;" parent="1" source="lcggfKQUq6D2q7CxVZYy-94" target="lcggfKQUq6D2q7CxVZYy-92" edge="1">
          <mxGeometry relative="1" as="geometry" />
        </mxCell>
        <mxCell id="lcggfKQUq6D2q7CxVZYy-94" value="Name" style="rounded=1;fillColor=#66B2FF;strokeColor=none;shadow=1;gradientColor=none;fontStyle=1;fontColor=#FFFFFF;fontSize=21&#xa;;" parent="1" vertex="1">
          <mxGeometry x="600" y="890" width="200" height="60" as="geometry" />
        </mxCell>
        <mxCell id="lcggfKQUq6D2q7CxVZYy-99" style="edgeStyle=none;rounded=0;orthogonalLoop=1;jettySize=auto;html=1;exitX=0;exitY=0.5;exitDx=0;exitDy=0;entryX=1;entryY=0.5;entryDx=0;entryDy=0;" parent="1" source="lcggfKQUq6D2q7CxVZYy-98" target="lcggfKQUq6D2q7CxVZYy-78" edge="1">
          <mxGeometry relative="1" as="geometry" />
        </mxCell>
        <mxCell id="lcggfKQUq6D2q7CxVZYy-98" value="ID_VESSEL" style="rounded=1;fillColor=red;strokeColor=none;shadow=1;gradientColor=none;fontStyle=1;fontColor=#FFFFFF;fontSize=21&#xa;;" parent="1" vertex="1">
          <mxGeometry x="850" y="442" width="200" height="60" as="geometry" />
        </mxCell>
        <mxCell id="lcggfKQUq6D2q7CxVZYy-101" style="edgeStyle=none;rounded=0;orthogonalLoop=1;jettySize=auto;html=1;exitX=0;exitY=0.25;exitDx=0;exitDy=0;entryX=1;entryY=0.75;entryDx=0;entryDy=0;" parent="1" source="lcggfKQUq6D2q7CxVZYy-100" target="lcggfKQUq6D2q7CxVZYy-78" edge="1">
          <mxGeometry relative="1" as="geometry" />
        </mxCell>
        <mxCell id="lcggfKQUq6D2q7CxVZYy-100" value="Length" style="rounded=1;fillColor=#66B2FF;strokeColor=none;shadow=1;gradientColor=none;fontStyle=1;fontColor=#FFFFFF;fontSize=21&#xa;;" parent="1" vertex="1">
          <mxGeometry x="960" y="518" width="200" height="60" as="geometry" />
        </mxCell>
        <mxCell id="lcggfKQUq6D2q7CxVZYy-103" style="edgeStyle=none;rounded=0;orthogonalLoop=1;jettySize=auto;html=1;exitX=0;exitY=0.5;exitDx=0;exitDy=0;entryX=1;entryY=1;entryDx=0;entryDy=0;" parent="1" source="lcggfKQUq6D2q7CxVZYy-102" target="lcggfKQUq6D2q7CxVZYy-78" edge="1">
          <mxGeometry relative="1" as="geometry" />
        </mxCell>
        <mxCell id="lcggfKQUq6D2q7CxVZYy-102" value="Width" style="rounded=1;fillColor=#66B2FF;strokeColor=none;shadow=1;gradientColor=none;fontStyle=1;fontColor=#FFFFFF;fontSize=21&#xa;;" parent="1" vertex="1">
          <mxGeometry x="960" y="590" width="200" height="60" as="geometry" />
        </mxCell>
        <mxCell id="lcggfKQUq6D2q7CxVZYy-105" style="edgeStyle=none;rounded=0;orthogonalLoop=1;jettySize=auto;html=1;exitX=0;exitY=0.5;exitDx=0;exitDy=0;entryX=0.936;entryY=1.029;entryDx=0;entryDy=0;entryPerimeter=0;" parent="1" source="lcggfKQUq6D2q7CxVZYy-104" target="lcggfKQUq6D2q7CxVZYy-78" edge="1">
          <mxGeometry relative="1" as="geometry" />
        </mxCell>
        <mxCell id="lcggfKQUq6D2q7CxVZYy-104" value="Height" style="rounded=1;fillColor=#66B2FF;strokeColor=none;shadow=1;gradientColor=none;fontStyle=1;fontColor=#FFFFFF;fontSize=21&#xa;;" parent="1" vertex="1">
          <mxGeometry x="950" y="670" width="200" height="60" as="geometry" />
        </mxCell>
        <mxCell id="lcggfKQUq6D2q7CxVZYy-107" style="edgeStyle=none;rounded=0;orthogonalLoop=1;jettySize=auto;html=1;exitX=0;exitY=0.5;exitDx=0;exitDy=0;" parent="1" source="lcggfKQUq6D2q7CxVZYy-106" edge="1">
          <mxGeometry relative="1" as="geometry">
            <mxPoint x="810" y="590" as="targetPoint" />
          </mxGeometry>
        </mxCell>
        <mxCell id="lcggfKQUq6D2q7CxVZYy-106" value="Brutto" style="rounded=1;fillColor=#66B2FF;strokeColor=none;shadow=1;gradientColor=none;fontStyle=1;fontColor=#FFFFFF;fontSize=21&#xa;;" parent="1" vertex="1">
          <mxGeometry x="970" y="760" width="200" height="60" as="geometry" />
        </mxCell>
        <mxCell id="lcggfKQUq6D2q7CxVZYy-109" style="edgeStyle=none;rounded=0;orthogonalLoop=1;jettySize=auto;html=1;exitX=0;exitY=0.5;exitDx=0;exitDy=0;entryX=0.75;entryY=1;entryDx=0;entryDy=0;" parent="1" source="lcggfKQUq6D2q7CxVZYy-108" target="lcggfKQUq6D2q7CxVZYy-78" edge="1">
          <mxGeometry relative="1" as="geometry" />
        </mxCell>
        <mxCell id="lcggfKQUq6D2q7CxVZYy-108" value="Netto" style="rounded=1;fillColor=#66B2FF;strokeColor=none;shadow=1;gradientColor=none;fontStyle=1;fontColor=#FFFFFF;fontSize=21&#xa;;" parent="1" vertex="1">
          <mxGeometry x="960" y="840" width="200" height="60" as="geometry" />
        </mxCell>
        <mxCell id="lcggfKQUq6D2q7CxVZYy-111" style="edgeStyle=none;rounded=0;orthogonalLoop=1;jettySize=auto;html=1;exitX=0;exitY=0.5;exitDx=0;exitDy=0;entryX=0.7;entryY=1.029;entryDx=0;entryDy=0;entryPerimeter=0;" parent="1" source="lcggfKQUq6D2q7CxVZYy-110" target="lcggfKQUq6D2q7CxVZYy-78" edge="1">
          <mxGeometry relative="1" as="geometry" />
        </mxCell>
        <mxCell id="lcggfKQUq6D2q7CxVZYy-110" value="CallSign" style="rounded=1;fillColor=#66B2FF;strokeColor=none;shadow=1;gradientColor=none;fontStyle=1;fontColor=#FFFFFF;fontSize=21&#xa;;" parent="1" vertex="1">
          <mxGeometry x="950" y="930" width="200" height="60" as="geometry" />
        </mxCell>
        <mxCell id="lcggfKQUq6D2q7CxVZYy-113" style="edgeStyle=none;rounded=0;orthogonalLoop=1;jettySize=auto;html=1;exitX=0;exitY=0.5;exitDx=0;exitDy=0;entryX=0.627;entryY=1;entryDx=0;entryDy=0;entryPerimeter=0;" parent="1" source="lcggfKQUq6D2q7CxVZYy-112" target="lcggfKQUq6D2q7CxVZYy-78" edge="1">
          <mxGeometry relative="1" as="geometry" />
        </mxCell>
        <mxCell id="lcggfKQUq6D2q7CxVZYy-112" value="Name" style="rounded=1;fillColor=#66B2FF;strokeColor=none;shadow=1;gradientColor=none;fontStyle=1;fontColor=#FFFFFF;fontSize=21&#xa;;" parent="1" vertex="1">
          <mxGeometry x="950" y="1040" width="200" height="60" as="geometry" />
        </mxCell>
        <mxCell id="4D_FJpm2fTLsMuWMtahU-3" value="ShipCall" style="rounded=1;fillColor=#10739E;strokeColor=none;shadow=1;gradientColor=none;fontStyle=1;fontColor=#FFFFFF;fontSize=21&#xa;;" vertex="1" parent="1">
          <mxGeometry x="1240" y="625" width="200" height="60" as="geometry" />
        </mxCell>
        <mxCell id="4D_FJpm2fTLsMuWMtahU-7" value="" style="endArrow=classic;html=1;rounded=0;exitX=0.5;exitY=0;exitDx=0;exitDy=0;entryX=0.75;entryY=1;entryDx=0;entryDy=0;" edge="1" parent="1" source="4D_FJpm2fTLsMuWMtahU-3" target="2">
          <mxGeometry width="50" height="50" relative="1" as="geometry">
            <mxPoint x="1320" y="840" as="sourcePoint" />
            <mxPoint x="820" y="270" as="targetPoint" />
          </mxGeometry>
        </mxCell>
        <mxCell id="4D_FJpm2fTLsMuWMtahU-10" value="" style="endArrow=classic;html=1;rounded=0;" edge="1" parent="1">
          <mxGeometry width="50" height="50" relative="1" as="geometry">
            <mxPoint x="1250" y="1010" as="sourcePoint" />
            <mxPoint x="1280" y="680" as="targetPoint" />
          </mxGeometry>
        </mxCell>
        <mxCell id="4D_FJpm2fTLsMuWMtahU-11" value="" style="endArrow=classic;html=1;rounded=0;" edge="1" parent="1">
          <mxGeometry width="50" height="50" relative="1" as="geometry">
            <mxPoint x="1300" y="960" as="sourcePoint" />
            <mxPoint x="1300" y="680" as="targetPoint" />
          </mxGeometry>
        </mxCell>
        <mxCell id="4D_FJpm2fTLsMuWMtahU-12" value="" style="endArrow=classic;html=1;rounded=0;entryX=0.12;entryY=1.017;entryDx=0;entryDy=0;entryPerimeter=0;" edge="1" parent="1" target="4D_FJpm2fTLsMuWMtahU-3">
          <mxGeometry width="50" height="50" relative="1" as="geometry">
            <mxPoint x="1220" y="960" as="sourcePoint" />
            <mxPoint x="1480" y="880" as="targetPoint" />
          </mxGeometry>
        </mxCell>
        <mxCell id="4D_FJpm2fTLsMuWMtahU-13" value="" style="endArrow=classic;html=1;rounded=0;entryX=0.12;entryY=1.017;entryDx=0;entryDy=0;entryPerimeter=0;" edge="1" parent="1">
          <mxGeometry width="50" height="50" relative="1" as="geometry">
            <mxPoint x="1280" y="960" as="sourcePoint" />
            <mxPoint x="1324" y="686.02" as="targetPoint" />
          </mxGeometry>
        </mxCell>
        <mxCell id="4D_FJpm2fTLsMuWMtahU-14" value="" style="endArrow=classic;html=1;rounded=0;" edge="1" parent="1">
          <mxGeometry width="50" height="50" relative="1" as="geometry">
            <mxPoint x="1310" y="1010" as="sourcePoint" />
            <mxPoint x="1340" y="680" as="targetPoint" />
          </mxGeometry>
        </mxCell>
        <mxCell id="4D_FJpm2fTLsMuWMtahU-15" value="" style="endArrow=classic;html=1;rounded=0;" edge="1" parent="1">
          <mxGeometry width="50" height="50" relative="1" as="geometry">
            <mxPoint x="1360" y="960" as="sourcePoint" />
            <mxPoint x="1360" y="680" as="targetPoint" />
          </mxGeometry>
        </mxCell>
        <mxCell id="4D_FJpm2fTLsMuWMtahU-16" value="" style="endArrow=classic;html=1;rounded=0;entryX=0.12;entryY=1.017;entryDx=0;entryDy=0;entryPerimeter=0;" edge="1" parent="1">
          <mxGeometry width="50" height="50" relative="1" as="geometry">
            <mxPoint x="1290" y="960" as="sourcePoint" />
            <mxPoint x="1334" y="686.02" as="targetPoint" />
          </mxGeometry>
        </mxCell>
        <mxCell id="4D_FJpm2fTLsMuWMtahU-17" value="" style="endArrow=classic;html=1;rounded=0;" edge="1" parent="1">
          <mxGeometry width="50" height="50" relative="1" as="geometry">
            <mxPoint x="1320" y="1010" as="sourcePoint" />
            <mxPoint x="1350" y="680" as="targetPoint" />
          </mxGeometry>
        </mxCell>
        <mxCell id="4D_FJpm2fTLsMuWMtahU-18" value="" style="endArrow=classic;html=1;rounded=0;" edge="1" parent="1">
          <mxGeometry width="50" height="50" relative="1" as="geometry">
            <mxPoint x="1370" y="960" as="sourcePoint" />
            <mxPoint x="1370" y="680" as="targetPoint" />
          </mxGeometry>
        </mxCell>
      </root>
    </mxGraphModel>
  </diagram>
</mxfile>
